<svg width="22" height="30" xmlns="http://www.w3.org/2000/svg"><g fill="none" fill-rule="evenodd"><path fill="#B20230" d="M0 0h22v30H0z"/><g fill="#FFF" fill-rule="nonzero"><path d="M3.5 18v-.94l3.539-4.92H3.71V11H8.5v.93l-3.557 4.93H8.5V18zM10.5 18v-7h1v7zM13.5 18v-7h2.766c.767 0 1.331.21 1.692.63.361.42.542.933.542 1.54 0 .573-.189 1.08-.566 1.52-.377.44-.933.66-1.668.66h-1.625V18H13.5Zm2.823-3.79c.336 0 .586-.103.751-.31.165-.207.247-.45.247-.73 0-.267-.077-.505-.233-.715-.155-.21-.41-.315-.765-.315h-1.682v2.07h1.682Z"/></g></g></svg>