<svg width="289" height="148" xmlns="http://www.w3.org/2000/svg"><defs><linearGradient x1="50%" y1="122.445%" x2="50%" y2="-8.474%" id="a"><stop stop-color="#DDF0FF" stop-opacity="0" offset="0%"/><stop stop-color="#3E6E99" stop-opacity=".5" offset="100%"/></linearGradient><linearGradient x1="50%" y1="127.324%" x2="50%" y2="0%" id="b"><stop stop-color="#DDF0FF" stop-opacity="0" offset="0%"/><stop stop-color="#3E6E99" stop-opacity=".5" offset="100%"/></linearGradient><linearGradient x1="50%" y1="106.693%" x2="50%" y2="-.011%" id="c"><stop stop-color="#DDF0FF" stop-opacity="0" offset="0%"/><stop stop-color="#3E6E99" stop-opacity=".7" offset="100%"/></linearGradient><linearGradient x1="50%" y1="233.735%" x2="50%" y2="-.011%" id="d"><stop stop-color="#DDF0FF" stop-opacity="0" offset="0%"/><stop stop-color="#3E6E99" stop-opacity=".7" offset="100%"/></linearGradient></defs><g fill-rule="nonzero" fill="none" opacity=".754"><path d="M0 0c45.673 5.841 80.975 44.857 80.975 92.118 0 20.587-6.698 39.61-18.034 55.007L0 147.124V0Z" fill-opacity=".3" fill="url(#a)"/><path d="M92.961 43c36.982 0 66.961 29.98 66.961 66.961 0 13.795-4.17 26.615-11.32 37.268H37.32C30.171 136.576 26 123.756 26 109.961 26 72.98 55.98 43 92.961 43Z" fill-opacity=".4" fill="url(#b)"/><path d="M173.806 64c25.298 0 45.806 20.508 45.806 45.806 0 15.078-7.285 28.455-18.528 36.802h-54.556C135.285 138.26 128 124.884 128 109.806 128 84.508 148.508 64 173.806 64Z" fill-opacity=".3" fill="url(#c)"/><path d="M243.945 110c22.257 0 40.807 15.875 44.945 36.92H199c4.137-21.045 22.687-36.92 44.945-36.92Z" fill-opacity=".25" fill="url(#d)"/></g></svg>