<?xml version="1.0" encoding="UTF-8"?>
<svg width="468px" height="497px" viewBox="0 0 468 497" version="1.1" xmlns="http://www.w3.org/2000/svg" xmlns:xlink="http://www.w3.org/1999/xlink">
    <title>Group 3</title>
    <defs>
        <linearGradient x1="50%" y1="0%" x2="50%" y2="100%" id="linearGradient-1">
            <stop stop-color="#3E6E99" stop-opacity="0.298058997" offset="0%"></stop>
            <stop stop-color="#DDF0FF" stop-opacity="0" offset="100%"></stop>
        </linearGradient>
        <linearGradient x1="50%" y1="0%" x2="50%" y2="100%" id="linearGradient-2">
            <stop stop-color="#3E6E99" stop-opacity="0.298058997" offset="0%"></stop>
            <stop stop-color="#DDF0FF" stop-opacity="0" offset="100%"></stop>
        </linearGradient>
        <linearGradient x1="50%" y1="0%" x2="50%" y2="100%" id="linearGradient-3">
            <stop stop-color="#3E6E99" stop-opacity="0.298058997" offset="0%"></stop>
            <stop stop-color="#DDF0FF" stop-opacity="0" offset="100%"></stop>
        </linearGradient>
        <linearGradient x1="50%" y1="0%" x2="50%" y2="100%" id="linearGradient-4">
            <stop stop-color="#3E6E99" stop-opacity="0.298058997" offset="0%"></stop>
            <stop stop-color="#DDF0FF" stop-opacity="0" offset="100%"></stop>
        </linearGradient>
        <linearGradient x1="50%" y1="0%" x2="50%" y2="100%" id="linearGradient-5">
            <stop stop-color="#3E6E99" stop-opacity="0.298058997" offset="0%"></stop>
            <stop stop-color="#DDF0FF" stop-opacity="0" offset="100%"></stop>
        </linearGradient>
        <linearGradient x1="50%" y1="0%" x2="50%" y2="100%" id="linearGradient-6">
            <stop stop-color="#3E6E99" stop-opacity="0.298058997" offset="0%"></stop>
            <stop stop-color="#DDF0FF" stop-opacity="0" offset="100%"></stop>
        </linearGradient>
    </defs>
    <g id="UI-Design" stroke="none" stroke-width="1" fill="none" fill-rule="evenodd" opacity="0.503539312">
        <g id="Bubbles-reworked" transform="translate(0.000000, -864.000000)" fill-rule="nonzero">
            <g id="Group-3" transform="translate(-0.000000, 864.000000)">
                <circle id="Oval" fill="url(#linearGradient-1)" cx="243.001523" cy="284" r="147"></circle>
                <path d="M6.00152324,0 C64.5437067,0 112.001523,47.4578165 112.001523,106 C112.001523,164.542183 64.5437067,212 6.00152324,212 C3.98755038,212 1.98669589,211.943834 0.000440740701,211.832982 L0.000440740701,0.167018474 C1.98669589,0.0561664725 3.98755038,0 6.00152324,0 Z" id="Combined-Shape" fill="url(#linearGradient-2)"></path>
                <circle id="Oval-Copy-2" fill="url(#linearGradient-1)" cx="150.001523" cy="311" r="106"></circle>
                <circle id="Oval" fill="url(#linearGradient-1)" cx="395.501523" cy="394.5" r="72.5"></circle>
                <path d="M270.42,414 C307.655038,414 337.84,444.184962 337.84,481.42 C337.84,486.348041 337.311268,491.15259 336.307437,495.780014 L204.532563,495.780014 C203.528732,491.15259 203,486.348041 203,481.42 C203,444.184962 233.184962,414 270.42,414 Z" id="Combined-Shape" fill="url(#linearGradient-3)"></path>
                <path d="M114.262752,433 C149.937788,433 179.141114,460.708682 181.525504,495.77882 L47,495.77882 C49.3843901,460.708682 78.5877163,433 114.262752,433 Z" id="Combined-Shape" fill="url(#linearGradient-4)"></path>
                <path d="M192.842067,467 C212.26798,467 228.888766,479.010176 235.684133,496.010236 L150,496.010236 C156.795367,479.010176 173.416153,467 192.842067,467 Z" id="Combined-Shape" fill="url(#linearGradient-5)"></path>
                <circle id="Oval-Copy-8" fill="url(#linearGradient-1)" cx="171.651523" cy="402.11" r="30"></circle>
                <path d="M38.5304906,386 C70.5630061,386 96.5304906,411.967485 96.5304906,444 C96.5304906,466.613916 83.5885516,486.205081 64.7072978,495.770869 L12.352167,495.770101 C7.86859323,493.498427 3.71994761,490.661434 1.77635684e-15,487.35289 L1.77635684e-15,400.64711 C10.2448568,391.535274 23.7412575,386 38.5304906,386 Z" id="Combined-Shape" fill="url(#linearGradient-6)"></path>
            </g>
        </g>
    </g>
</svg>