<?xml version="1.0" encoding="UTF-8"?>
<svg width="526px" height="491px" viewBox="0 0 526 491" version="1.1" xmlns="http://www.w3.org/2000/svg" xmlns:xlink="http://www.w3.org/1999/xlink">
    <title>Group 4</title>
    <defs>
        <linearGradient x1="50%" y1="0%" x2="50%" y2="100%" id="linearGradient-1">
            <stop stop-color="#3E6E99" stop-opacity="0.298058997" offset="0%"></stop>
            <stop stop-color="#DDF0FF" stop-opacity="0" offset="100%"></stop>
        </linearGradient>
        <linearGradient x1="50%" y1="0%" x2="50%" y2="100%" id="linearGradient-2">
            <stop stop-color="#3E6E99" stop-opacity="0.298058997" offset="0%"></stop>
            <stop stop-color="#DDF0FF" stop-opacity="0" offset="100%"></stop>
        </linearGradient>
        <linearGradient x1="50%" y1="0%" x2="50%" y2="100%" id="linearGradient-3">
            <stop stop-color="#3E6E99" stop-opacity="0.298058997" offset="0%"></stop>
            <stop stop-color="#DDF0FF" stop-opacity="0" offset="100%"></stop>
        </linearGradient>
        <linearGradient x1="50%" y1="0%" x2="50%" y2="100%" id="linearGradient-4">
            <stop stop-color="#3E6E99" stop-opacity="0.298058997" offset="0%"></stop>
            <stop stop-color="#DDF0FF" stop-opacity="0" offset="100%"></stop>
        </linearGradient>
        <linearGradient x1="50%" y1="0%" x2="50%" y2="100%" id="linearGradient-5">
            <stop stop-color="#3E6E99" stop-opacity="0.298058997" offset="0%"></stop>
            <stop stop-color="#DDF0FF" stop-opacity="0" offset="100%"></stop>
        </linearGradient>
        <linearGradient x1="50%" y1="0%" x2="50%" y2="100%" id="linearGradient-6">
            <stop stop-color="#3E6E99" stop-opacity="0.298058997" offset="0%"></stop>
            <stop stop-color="#DDF0FF" stop-opacity="0" offset="100%"></stop>
        </linearGradient>
        <linearGradient x1="50%" y1="0%" x2="50%" y2="100%" id="linearGradient-7">
            <stop stop-color="#3E6E99" stop-opacity="0.298058997" offset="0%"></stop>
            <stop stop-color="#DDF0FF" stop-opacity="0" offset="100%"></stop>
        </linearGradient>
    </defs>
    <g id="UI-Design" stroke="none" stroke-width="1" fill="none" fill-rule="evenodd" opacity="0.497136434">
        <g id="Bubbles-reworked" transform="translate(-914.000000, -870.000000)" fill-rule="nonzero">
            <g id="Group-4" transform="translate(914.000000, 870.000000)">
                <path d="M525.998935,5.32907052e-15 L525.998935,192.002425 C489.956562,175.078106 465,138.454118 465,96.0012127 C465,53.5483071 489.956562,16.924319 525.998935,5.32907052e-15 Z" id="Combined-Shape" fill="url(#linearGradient-1)"></path>
                <path d="M430.5,234 C467.307159,234 500.831952,248.053482 526.001277,271.087345 L526.001277,479.912655 C522.081663,483.499713 517.959414,486.868982 513.653691,490.001301 L347.348969,490.003236 C311.987238,464.279612 289,422.574284 289,375.5 C289,297.351708 352.351708,234 430.5,234 Z" id="Combined-Shape" fill="url(#linearGradient-2)"></path>
                <circle id="Oval-Copy-6" fill="url(#linearGradient-3)" cx="55" cy="383.001213" r="55"></circle>
                <circle id="Oval-Copy-5" fill="url(#linearGradient-3)" cx="241.5" cy="318.501213" r="72.5"></circle>
                <path d="M501.506,397 C509.980417,397 518.191541,398.127295 525.997595,400.240108 L525.997,490 L408,490 L408.008528,488.963641 C408.834295,438.032723 450.378295,397 501.506,397 Z" id="Combined-Shape" fill="url(#linearGradient-4)"></path>
                <path d="M283.42,422 C320.655038,422 350.84,452.184962 350.84,489.42 L350.834,490.05 L216.002892,490.051045 C216.000965,489.840925 216,489.630575 216,489.42 C216,452.184962 246.184962,422 283.42,422 Z" id="Combined-Shape" fill="url(#linearGradient-5)"></path>
                <path d="M442.161231,440 C473.390489,440 499.660525,461.232952 507.322462,490.049976 L377,490.049976 C384.661936,461.232952 410.931973,440 442.161231,440 Z" id="Combined-Shape" fill="url(#linearGradient-6)"></path>
                <path d="M215.586278,456 C236.96484,456 254.946002,470.545995 260.172556,490.280777 L171,490.280777 C176.226554,470.545995 194.207717,456 215.586278,456 Z" id="Combined-Shape" fill="url(#linearGradient-7)"></path>
                <circle id="Oval-Copy-9" fill="url(#linearGradient-3)" cx="369.65" cy="237.111213" r="30"></circle>
            </g>
        </g>
    </g>
</svg>