<?xml version="1.0" encoding="UTF-8"?>
<svg width="50px" height="50px" viewBox="0 0 50 50" version="1.1" xmlns="http://www.w3.org/2000/svg" xmlns:xlink="http://www.w3.org/1999/xlink">
    <title>button/secondary start over 5</title>
    <defs>
        <path d="M32.000387,2.999613 C40.2846582,2.999613 47.000387,9.71534175 47.000387,17.999613 L46.999387,47.000613 L2.999387,2.999613 L32.000387,2.999613 Z" id="path-1"></path>
        <filter x="-22.7%" y="-27.3%" width="145.5%" height="145.5%" filterUnits="objectBoundingBox" id="filter-2">
            <feOffset dx="0" dy="-2" in="SourceAlpha" result="shadowOffsetOuter1"></feOffset>
            <feGaussianBlur stdDeviation="3" in="shadowOffsetOuter1" result="shadowBlurOuter1"></feGaussianBlur>
            <feComposite in="shadowBlurOuter1" in2="SourceAlpha" operator="out" result="shadowBlurOuter1"></feComposite>
            <feColorMatrix values="0 0 0 0 0   0 0 0 0 0   0 0 0 0 0  0 0 0 0.0753856739 0" type="matrix" in="shadowBlurOuter1"></feColorMatrix>
        </filter>
        <linearGradient x1="88.6540673%" y1="13.0079409%" x2="57.3466041%" y2="45.0220685%" id="linearGradient-3">
            <stop stop-color="#FFFFFF" stop-opacity="0" offset="0%"></stop>
            <stop stop-color="#000000" stop-opacity="0.225307651" offset="100%"></stop>
        </linearGradient>
        <path d="M32.000613,3.000387 C40.2848842,3.000387 47.000613,9.71611575 47.000613,18.000387 L46.999613,47.001387 L2.999613,3.000387 L32.000613,3.000387 Z" id="path-4"></path>
        <filter x="-4.5%" y="-6.8%" width="109.1%" height="109.1%" filterUnits="objectBoundingBox" id="filter-5">
            <feOffset dx="0" dy="-1" in="SourceAlpha" result="shadowOffsetOuter1"></feOffset>
            <feGaussianBlur stdDeviation="0.5" in="shadowOffsetOuter1" result="shadowBlurOuter1"></feGaussianBlur>
            <feComposite in="shadowBlurOuter1" in2="SourceAlpha" operator="out" result="shadowBlurOuter1"></feComposite>
            <feColorMatrix values="0 0 0 0 0   0 0 0 0 0   0 0 0 0 0  0 0 0 0.0753856739 0" type="matrix" in="shadowBlurOuter1"></feColorMatrix>
        </filter>
    </defs>
    <g id="button/secondary-start-over-5" stroke="none" stroke-width="1" fill="none" fill-rule="evenodd">
        <path d="M50,3 L50,35 C50,43.2842712 43.2842712,50 35,50 L2.999,49.999 L2.999,47.002 L47.001,3 L50,3 Z" id="Combined-Shape" fill="#DDF0FF"></path>
        <g id="start-over" transform="translate(31.521037, 33.595038) rotate(-45.000000) translate(-31.521037, -33.595038) translate(22.198965, 26.292038)" fill="#F06543" fill-rule="nonzero">
            <path d="M1.665,6.606 C1.335,6.606 1.0215,6.5355 0.7245,6.3945 C0.4275,6.2535 0.186,6.066 5.68434189e-14,5.832 L0.558,5.355 C0.9,5.721 1.275,5.904 1.683,5.904 C1.941,5.904 2.148,5.8545 2.304,5.7555 C2.46,5.6565 2.538,5.511 2.538,5.319 C2.538,5.175 2.481,5.0445 2.367,4.9275 C2.253,4.8105 2.136,4.7235 2.016,4.6665 C1.896,4.6095 1.719,4.536 1.485,4.446 C1.017,4.272 0.663,4.077 0.423,3.861 C0.183,3.645 0.063,3.36 0.063,3.006 C0.063,2.634 0.2085,2.3385 0.4995,2.1195 C0.7905,1.9005 1.161,1.791 1.611,1.791 C2.253,1.791 2.769,2.022 3.159,2.484 L2.619,2.934 C2.337,2.64 1.998,2.493 1.602,2.493 C1.368,2.493 1.182,2.538 1.044,2.628 C0.906,2.718 0.837,2.844 0.837,3.006 C0.837,3.096 0.8595,3.1785 0.9045,3.2535 C0.9495,3.3285 1.0305,3.399 1.1475,3.465 C1.2645,3.531 1.3575,3.5805 1.4265,3.6135 C1.4955,3.6465 1.623,3.699 1.809,3.771 C2.295,3.945 2.6655,4.143 2.9205,4.365 C3.1755,4.587 3.303,4.899 3.303,5.301 C3.303,5.709 3.156,6.0285 2.862,6.2595 C2.568,6.4905 2.169,6.606 1.665,6.606 Z" id="Path"></path>
            <path d="M5.83328571,6.606 C5.18528571,6.606 4.86128571,6.24 4.86128571,5.508 L4.86128571,2.583 L4.11428571,2.583 L4.11428571,1.899 L4.86128571,1.899 L4.86128571,0.378 L5.64428571,-1.13686838e-13 L5.64428571,1.899 L6.77828571,1.899 L6.77828571,2.583 L5.64428571,2.583 L5.64428571,5.247 C5.64428571,5.451 5.67728571,5.607 5.74328571,5.715 C5.80928571,5.823 5.93528571,5.877 6.12128571,5.877 C6.32528571,5.877 6.55328571,5.796 6.80528571,5.634 L6.71528571,6.399 C6.45128571,6.537 6.15728571,6.606 5.83328571,6.606 Z" id="Path"></path>
            <path d="M10.5685714,6.498 L10.5685714,6.075 C10.1905714,6.429 9.75557143,6.606 9.26357143,6.606 C8.77757143,6.606 8.38907143,6.4725 8.09807143,6.2055 C7.80707143,5.9385 7.66157143,5.556 7.66157143,5.058 C7.66157143,4.56 7.82657143,4.182 8.15657143,3.924 C8.48657143,3.666 8.89457143,3.537 9.38057143,3.537 C9.82457143,3.537 10.2205714,3.636 10.5685714,3.834 L10.5685714,3.51 C10.5685714,3.126 10.4830714,2.8575 10.3120714,2.7045 C10.1410714,2.5515 9.89357143,2.475 9.56957143,2.475 C9.10757143,2.475 8.66057143,2.628 8.22857143,2.934 L8.00357143,2.277 C8.49557143,1.953 9.05057143,1.791 9.66857143,1.791 C10.7605714,1.791 11.3065714,2.343 11.3065714,3.447 L11.3065714,6.498 L10.5685714,6.498 Z M9.38057143,5.913 C9.83057143,5.913 10.2265714,5.712 10.5685714,5.31 L10.5685714,4.518 C10.2385714,4.314 9.87857143,4.212 9.48857143,4.212 C9.17057143,4.212 8.90957143,4.284 8.70557143,4.428 C8.50157143,4.572 8.39957143,4.782 8.39957143,5.058 C8.39957143,5.316 8.48507143,5.523 8.65607143,5.679 C8.82707143,5.835 9.06857143,5.913 9.38057143,5.913 Z" id="Shape"></path>
            <path d="M12.7298571,6.498 L12.7298571,1.899 L13.5128571,1.899 L13.5128571,2.502 C13.7288571,2.028 14.0918571,1.791 14.6018571,1.791 C14.8898571,1.791 15.1268571,1.869 15.3128571,2.025 L15.1958571,2.763 C15.0038571,2.631 14.7848571,2.565 14.5388571,2.565 C14.2688571,2.565 14.0303571,2.67 13.8233571,2.88 C13.6163571,3.09 13.5128571,3.432 13.5128571,3.906 L13.5128571,6.498 L12.7298571,6.498 Z" id="Path"></path>
            <path d="M17.6721429,6.606 C17.0241429,6.606 16.7001429,6.24 16.7001429,5.508 L16.7001429,2.583 L15.9531429,2.583 L15.9531429,1.899 L16.7001429,1.899 L16.7001429,0.378 L17.4831429,-1.13686838e-13 L17.4831429,1.899 L18.6171429,1.899 L18.6171429,2.583 L17.4831429,2.583 L17.4831429,5.247 C17.4831429,5.451 17.5161429,5.607 17.5821429,5.715 C17.6481429,5.823 17.7741429,5.877 17.9601429,5.877 C18.1641429,5.877 18.3921429,5.796 18.6441429,5.634 L18.5541429,6.399 C18.2901429,6.537 17.9961429,6.606 17.6721429,6.606 Z" id="Path"></path>
            <path d="M4.21714286,13.967 C3.85114286,14.393 3.35614286,14.606 2.73214286,14.606 C2.10814286,14.606 1.61314286,14.393 1.24714286,13.967 C0.881142857,13.541 0.698142857,12.953 0.698142857,12.203 C0.698142857,11.453 0.881142857,10.8635 1.24714286,10.4345 C1.61314286,10.0055 2.10814286,9.791 2.73214286,9.791 C3.35614286,9.791 3.85114286,10.004 4.21714286,10.43 C4.58314286,10.856 4.76614286,11.444 4.76614286,12.194 C4.76614286,12.944 4.58314286,13.535 4.21714286,13.967 Z M1.81414286,13.436 C2.03614286,13.73 2.34214286,13.877 2.73214286,13.877 C3.12214286,13.877 3.42664286,13.7285 3.64564286,13.4315 C3.86464286,13.1345 3.97414286,12.722 3.97414286,12.194 C3.97414286,11.672 3.86464286,11.261 3.64564286,10.961 C3.42664286,10.661 3.12214286,10.511 2.73214286,10.511 C2.34214286,10.511 2.03764286,10.6595 1.81864286,10.9565 C1.59964286,11.2535 1.49014286,11.669 1.49014286,12.203 C1.49014286,12.725 1.59814286,13.136 1.81414286,13.436 Z" id="Shape"></path>
            <path d="M7.28742857,14.498 L5.60442857,9.899 L6.39642857,9.899 L7.48542857,12.968 C7.56342857,13.196 7.61142857,13.346 7.62942857,13.418 C7.64742857,13.346 7.69542857,13.196 7.77342857,12.968 L8.84442857,9.899 L9.62742857,9.899 L7.94442857,14.498 L7.28742857,14.498 Z" id="Path"></path>
            <path d="M12.4997143,14.606 C11.8757143,14.606 11.3792143,14.3825 11.0102143,13.9355 C10.6412143,13.4885 10.4567143,12.908 10.4567143,12.194 C10.4567143,11.444 10.6427143,10.856 11.0147143,10.43 C11.3867143,10.004 11.8817143,9.791 12.4997143,9.791 C13.0517143,9.791 13.5062143,9.9755 13.8632143,10.3445 C14.2202143,10.7135 14.3987143,11.258 14.3987143,11.978 C14.3987143,12.146 14.3897143,12.32 14.3717143,12.5 L11.2577143,12.5 C11.2877143,12.92 11.4182143,13.2575 11.6492143,13.5125 C11.8802143,13.7675 12.1697143,13.895 12.5177143,13.895 C12.9017143,13.895 13.2317143,13.757 13.5077143,13.481 L13.9847143,14.012 C13.5887143,14.408 13.0937143,14.606 12.4997143,14.606 Z M11.2487143,11.834 L13.6067143,11.834 C13.6007143,11.36 13.4882143,11.0165 13.2692143,10.8035 C13.0502143,10.5905 12.7937143,10.484 12.4997143,10.484 C12.1457143,10.484 11.8547143,10.5965 11.6267143,10.8215 C11.3987143,11.0465 11.2727143,11.384 11.2487143,11.834 Z" id="Shape"></path>
            <path d="M15.633,14.498 L15.633,9.899 L16.416,9.899 L16.416,10.502 C16.632,10.028 16.995,9.791 17.505,9.791 C17.793,9.791 18.03,9.869 18.216,10.025 L18.099,10.763 C17.907,10.631 17.688,10.565 17.442,10.565 C17.172,10.565 16.9335,10.67 16.7265,10.88 C16.5195,11.09 16.416,11.432 16.416,11.906 L16.416,14.498 L15.633,14.498 Z" id="Path"></path>
        </g>
        <g id="Combined-Shape" transform="translate(25.000387, 25.000000) rotate(-90.000000) translate(-25.000387, -25.000000) ">
            <use fill="black" fill-opacity="1" filter="url(#filter-2)" xlink:href="#path-1"></use>
            <path stroke-opacity="0.253805521" stroke="#517CA2" stroke-width="1" d="M32.000387,3.499613 C36.0044514,3.499613 39.6294514,5.12258078 42.2534353,7.74656467 C44.8774192,10.3705486 46.500387,13.9955486 46.500387,17.9995958 L46.500387,17.9995958 L46.4994286,45.7935284 L4.20647438,3.499613 Z" stroke-linejoin="square" fill-opacity="0.5" fill="#DDF0FF" fill-rule="evenodd"></path>
        </g>
        <g id="Combined-Shape" transform="translate(25.000113, 25.000887) rotate(-90.000000) translate(-25.000113, -25.000887) ">
            <use fill="black" fill-opacity="1" filter="url(#filter-5)" xlink:href="#path-4"></use>
            <use fill-opacity="0" fill="#DDF0FF" fill-rule="evenodd" xlink:href="#path-4"></use>
            <use fill-opacity="0.45" fill="url(#linearGradient-3)" fill-rule="evenodd" xlink:href="#path-4"></use>
        </g>
    </g>
</svg>