<svg width="50" height="50" xmlns="http://www.w3.org/2000/svg" xmlns:xlink="http://www.w3.org/1999/xlink"><defs><filter x="-22.7%" y="-27.3%" width="145.5%" height="145.5%" filterUnits="objectBoundingBox" id="a"><feOffset dy="-2" in="SourceAlpha" result="shadowOffsetOuter1"/><feGaussianBlur stdDeviation="3" in="shadowOffsetOuter1" result="shadowBlurOuter1"/><feComposite in="shadowBlurOuter1" in2="SourceAlpha" operator="out" result="shadowBlurOuter1"/><feColorMatrix values="0 0 0 0 0 0 0 0 0 0 0 0 0 0 0 0 0 0 0.0753856739 0" in="shadowBlurOuter1"/></filter><filter x="-4.5%" y="-6.8%" width="109.1%" height="109.1%" filterUnits="objectBoundingBox" id="c"><feOffset dy="-1" in="SourceAlpha" result="shadowOffsetOuter1"/><feGaussianBlur stdDeviation=".5" in="shadowOffsetOuter1" result="shadowBlurOuter1"/><feComposite in="shadowBlurOuter1" in2="SourceAlpha" operator="out" result="shadowBlurOuter1"/><feColorMatrix values="0 0 0 0 0 0 0 0 0 0 0 0 0 0 0 0 0 0 0.0753856739 0" in="shadowBlurOuter1"/></filter><path d="M32 3c8.285 0 15 6.715 15 15v29L3 3h29Z" id="b"/><path d="M32 3c8.285 0 15 6.716 15 15v29.001l-44-44h29Z" id="d"/><linearGradient x1="88.654%" y1="13.008%" x2="57.347%" y2="45.022%" id="e"><stop stop-color="#FFF" stop-opacity="0" offset="0%"/><stop stop-opacity=".225" offset="100%"/></linearGradient></defs><g fill="none" fill-rule="evenodd"><path d="M50 3v32c0 8.284-6.716 15-15 15l-32.001-.001v-2.997L47.001 3H50Z" fill="#DDF0FF"/><g fill="#F06543" fill-rule="nonzero"><path d="M25.614 38.517a2.166 2.166 0 0 1-.815.515c-.31.11-.613.149-.91.115l.057-.732c.501.017.896-.12 1.184-.408.183-.182.294-.363.334-.544a.485.485 0 0 0-.143-.474.549.549 0 0 0-.398-.156 1.24 1.24 0 0 0-.432.064 8.127 8.127 0 0 0-.532.22c-.454.207-.842.32-1.164.337-.323.017-.61-.1-.86-.35a1.052 1.052 0 0 1-.318-.936c.051-.36.236-.7.554-1.018.454-.454.982-.655 1.585-.605l-.064.7a1.359 1.359 0 0 0-1.031.408c-.166.165-.265.329-.3.49-.033.161.007.299.122.413a.472.472 0 0 0 .222.128.642.642 0 0 0 .322-.023c.13-.036.23-.066.302-.092.072-.025.2-.078.382-.159.467-.22.869-.343 1.206-.366.337-.023.648.107.932.392.289.288.41.618.366.99-.044.37-.245.734-.601 1.09ZM28.561 35.57c-.458.457-.946.428-1.463-.09l-2.069-2.068-.528.528-.484-.484.529-.528-1.076-1.075.286-.821 1.343 1.342.802-.801.484.483-.802.802 1.884 1.884c.144.144.278.231.4.26.124.03.25-.02.382-.152.145-.144.249-.363.312-.655l.478.604c-.09.284-.249.541-.478.77ZM31.833 32.144l-.299-.299c-.017.518-.2.95-.547 1.299-.344.343-.713.524-1.108.54-.394.017-.767-.15-1.12-.502-.352-.352-.502-.736-.451-1.152.05-.416.248-.796.591-1.14a2.36 2.36 0 0 1 1.05-.63l-.229-.228c-.271-.272-.521-.401-.75-.389-.23.013-.459.134-.688.363-.327.327-.534.751-.624 1.273l-.623-.306a2.96 2.96 0 0 1 .833-1.52c.773-.773 1.549-.768 2.33.012l2.157 2.158-.522.521Zm-1.253.427c.318-.318.456-.74.413-1.267l-.56-.56c-.377.09-.704.272-.98.548-.225.224-.358.46-.4.706-.043.246.033.467.228.662a.8.8 0 0 0 .62.258c.232-.011.458-.127.679-.347ZM33.361 30.616l-3.252-3.252.554-.553.427.426c-.183-.488-.094-.912.267-1.273.203-.204.426-.316.668-.337l.44.604c-.23.043-.431.151-.605.325a.977.977 0 0 0-.284.729c.003.294.171.61.506.945l1.833 1.832-.554.554ZM36.933 27.198c-.459.458-.947.428-1.464-.09L33.4 25.04l-.529.529-.483-.484.528-.528-1.076-1.076.287-.82 1.343 1.342.801-.802.484.484-.802.802 1.884 1.883c.144.145.278.232.4.261.124.03.251-.02.383-.152.144-.145.248-.363.312-.656l.477.605c-.09.284-.248.54-.477.77ZM32.623 41.917c.043.56-.157 1.06-.598 1.502-.441.441-.942.64-1.502.598-.56-.042-1.105-.329-1.635-.86-.53-.53-.818-1.076-.862-1.638-.045-.562.153-1.064.595-1.505.44-.441.941-.64 1.501-.598.56.042 1.106.329 1.636.859.53.53.819 1.078.865 1.642ZM30.55 43.24c.365.05.685-.062.96-.338.277-.275.387-.596.332-.96-.055-.365-.27-.735-.643-1.108-.37-.37-.737-.582-1.104-.64-.367-.057-.689.052-.964.328-.276.276-.386.596-.331.961.055.365.271.736.649 1.114.369.369.736.583 1.1.643ZM35.17 40.121l-4.442-2.062.56-.56 2.94 1.4c.216.107.356.179.42.217a7.21 7.21 0 0 1-.216-.42l-1.413-2.928.554-.553 2.062 4.442-.465.464ZM38.932 36.512c-.441.441-.95.634-1.527.58-.577-.056-1.118-.336-1.623-.84-.53-.531-.815-1.078-.853-1.643-.038-.564.161-1.065.598-1.502.39-.39.842-.58 1.356-.572.513.008 1.024.267 1.533.776.12.119.236.248.35.388l-2.201 2.202c.318.276.649.422.992.44.344.016.639-.098.885-.344a1.35 1.35 0 0 0 .407-.993l.713.038c0 .56-.21 1.05-.63 1.47Zm-2.845-1.075 1.668-1.668c-.34-.33-.662-.494-.968-.49-.305.004-.562.11-.77.318-.25.25-.376.536-.378.856-.003.32.147.648.448.984ZM41.071 34.22l-3.252-3.252.554-.553.426.426c-.182-.488-.093-.912.268-1.273.203-.204.426-.316.668-.337l.439.604c-.23.043-.43.151-.605.325a.977.977 0 0 0-.283.729c.002.295.17.61.506.945l1.833 1.833-.554.553Z"/></g><g transform="rotate(-90 25 25)"><use fill="#000" filter="url(#a)" xlink:href="#b"/><path stroke-opacity=".254" stroke="#517CA2" d="M32 3.5c4.004 0 7.63 1.623 10.253 4.247A14.455 14.455 0 0 1 46.5 18v27.794L4.205 3.5Z" stroke-linejoin="square" fill-opacity=".5" fill="#DDF0FF"/></g><g transform="rotate(-90 25 25)"><use fill="#000" filter="url(#c)" xlink:href="#d"/><use fill-opacity="0" fill="#DDF0FF" xlink:href="#d"/><use fill-opacity=".45" fill="url(#e)" xlink:href="#d"/></g></g></svg>