<?xml version="1.0" encoding="UTF-8"?>
<svg width="22px" height="30px" viewBox="0 0 22 30" version="1.1" xmlns="http://www.w3.org/2000/svg" xmlns:xlink="http://www.w3.org/1999/xlink">
    <title>doc_type/generic</title>
    <g id="doc_type/generic" stroke="none" stroke-width="1" fill="none" fill-rule="evenodd">
        <g id="Group-5-Copy">
            <rect id="Rectangle-Copy-4" stroke="#3E6E99" fill="#FFFFFF" transform="translate(11.000000, 15.000000) rotate(-360.000000) translate(-11.000000, -15.000000) " x="0.5" y="0.5" width="21" height="29"></rect>
            <g id="Group-4" transform="translate(2.971517, 4.018222)" fill="#3E6E99">
                <rect id="Rectangle" transform="translate(7.924045, 0.482187) rotate(-360.000000) translate(-7.924045, -0.482187) " x="0" y="2.85511811e-14" width="15.8480905" height="1"></rect>
                <rect id="Rectangle-Copy-5" transform="translate(7.924045, 3.495853) rotate(-360.000000) translate(-7.924045, -3.495853) " x="0" y="3.01366614" width="15.8480905" height="1"></rect>
                <rect id="Rectangle-Copy-6" transform="translate(7.924045, 6.509519) rotate(-360.000000) translate(-7.924045, -6.509519) " x="0" y="6.02733229" width="15.8480905" height="1"></rect>
                <rect id="Rectangle-Copy-7" transform="translate(7.924045, 9.523185) rotate(-360.000000) translate(-7.924045, -9.523185) " x="0" y="9.04099843" width="15.8480905" height="1"></rect>
                <rect id="Rectangle-Copy-8" transform="translate(7.924045, 12.536851) rotate(-360.000000) translate(-7.924045, -12.536851) " x="0" y="12.0546646" width="15.8480905" height="1"></rect>
                <rect id="Rectangle-Copy-9" transform="translate(7.924045, 15.550517) rotate(-360.000000) translate(-7.924045, -15.550517) " x="0" y="15.0683307" width="15.8480905" height="1"></rect>
                <rect id="Rectangle-Copy-10" transform="translate(7.924045, 18.564183) rotate(-360.000000) translate(-7.924045, -18.564183) " x="0" y="18.0819969" width="15.8480905" height="1"></rect>
                <rect id="Rectangle-Copy-11" transform="translate(7.924045, 21.577850) rotate(-360.000000) translate(-7.924045, -21.577850) " x="0" y="21.095663" width="15.8480905" height="1"></rect>
            </g>
        </g>
    </g>
</svg>