<svg width="22px" height="30px" viewBox="0 0 22 30" version="1.1" xmlns="http://www.w3.org/2000/svg" xmlns:xlink="http://www.w3.org/1999/xlink">
    <title>icon/ZIP_doc</title>
    <g id="icon/ZIP_doc" stroke="none" stroke-width="1" fill="none" fill-rule="evenodd">
        <g id="Group-28" transform="translate(-0.000000, -0.000000)">
            <rect id="Rectangle-Copy-4" stroke="#3E6E99" fill="#FFFFFF" transform="translate(11.000000, 15.000000) rotate(-360.000000) translate(-11.000000, -15.000000) " x="0.5" y="0.5" width="21" height="29"></rect>
            <g id="ZIP" transform="translate(3.163571, 11.300000)" fill="#3D3148" fill-rule="nonzero">
                <polygon id="Path" points="0 7.7 0 6.666 4.235 1.254 0.253 1.254 0.253 0 5.984 0 5.984 1.023 1.727 6.446 5.984 6.446 5.984 7.7"></polygon>
                <polygon id="Path" points="7.72828571 7.7 7.72828571 0 9.04828571 0 9.04828571 7.7"></polygon>
                <path d="M11.0675714,7.7 L11.0675714,0 L14.2685714,0 C15.1559048,0 15.8085714,0.231 16.2265714,0.693 C16.6445714,1.155 16.8535714,1.71966667 16.8535714,2.387 C16.8535714,3.01766667 16.6354048,3.575 16.1990714,4.059 C15.7627381,4.543 15.1192381,4.785 14.2685714,4.785 L12.3875714,4.785 L12.3875714,7.7 L11.0675714,7.7 Z M14.3345714,3.531 C14.7232381,3.531 15.0129048,3.41733333 15.2035714,3.19 C15.3942381,2.96266667 15.4895714,2.695 15.4895714,2.387 C15.4895714,2.09366667 15.3997381,1.8315 15.2200714,1.6005 C15.0404048,1.3695 14.7452381,1.254 14.3345714,1.254 L12.3875714,1.254 L12.3875714,3.531 L14.3345714,3.531 Z" id="Shape"></path>
            </g>
        </g>
    </g>
</svg>