<?xml version="1.0" encoding="UTF-8"?>
<svg width="68px" height="68px" viewBox="0 0 68 68" version="1.1" xmlns="http://www.w3.org/2000/svg" xmlns:xlink="http://www.w3.org/1999/xlink">
    <title>icon/import_release</title>
    <defs>
        <circle id="path-1" cx="34" cy="34" r="34"></circle>
        <filter x="-4.4%" y="-4.4%" width="108.8%" height="108.8%" filterUnits="objectBoundingBox" id="filter-2">
            <feOffset dx="0" dy="0" in="SourceAlpha" result="shadowOffsetOuter1"></feOffset>
            <feGaussianBlur stdDeviation="1" in="shadowOffsetOuter1" result="shadowBlurOuter1"></feGaussianBlur>
            <feComposite in="shadowBlurOuter1" in2="SourceAlpha" operator="out" result="shadowBlurOuter1"></feComposite>
            <feColorMatrix values="0 0 0 0 0   0 0 0 0 0   0 0 0 0 0  0 0 0 0.349764737 0" type="matrix" in="shadowBlurOuter1"></feColorMatrix>
        </filter>
    </defs>
    <g id="icon/import_release" stroke="none" stroke-width="1" fill="none" fill-rule="evenodd">
        <g id="Oval-Copy-13">
            <use fill="black" fill-opacity="1" filter="url(#filter-2)" xlink:href="#path-1"></use>
            <use fill-opacity="0.499330747" fill="#FFFFFF" fill-rule="evenodd" xlink:href="#path-1"></use>
        </g>
        <circle id="Oval" fill="#11A770" cx="34" cy="34" r="23"></circle>
        <path d="M34,21 C35.6568542,21 37,22.3431458 37,24 L37,44 C37,45.6568542 35.6568542,47 34,47 C32.3431458,47 31,45.6568542 31,44 L31,24 C31,22.3431458 32.3431458,21 34,21 Z" id="Rectangle-Copy" fill="#FFFFFF" transform="translate(34.000000, 34.000000) scale(1, -1) rotate(-360.000000) translate(-34.000000, -34.000000) "></path>
        <path d="M38,28 C39.6568542,28 41,29.3431458 41,31 L41,45 C41,46.6568542 39.6568542,48 38,48 C36.3431458,48 35,46.6568542 35,45 L35,31 C35,29.3431458 36.3431458,28 38,28 Z" id="Rectangle-Copy-2" fill="#FFFFFF" transform="translate(38.000000, 38.000000) scale(1, -1) rotate(-573.000000) translate(-38.000000, -38.000000) "></path>
        <path d="M30,28 C31.6568542,28 33,29.3431458 33,31 L33,45 C33,46.6568542 31.6568542,48 30,48 C28.3431458,48 27,46.6568542 27,45 L27,31 C27,29.3431458 28.3431458,28 30,28 Z" id="Rectangle-Copy-4" fill="#FFFFFF" transform="translate(30.000000, 38.000000) scale(-1, -1) rotate(-573.000000) translate(-30.000000, -38.000000) "></path>
    </g>
</svg>