<svg width="10" height="18" xmlns="http://www.w3.org/2000/svg" xmlns:xlink="http://www.w3.org/1999/xlink"><defs><path id="a" d="M0 0h10v8.462H0z"/><path id="c" d="M0 0h10v8.462H0z"/></defs><g fill="none" fill-rule="evenodd"><path d="M3.846 13.35V4.342c0-.274.236-.496.527-.496h1.254c.29 0 .527.222.527.496v9.008c0 .274-.236.496-.527.496H4.373c-.29 0-.527-.222-.527-.496" fill="#B20230"/><g><mask id="b" fill="#fff"><use xlink:href="#a"/></mask><path d="M2.071 5.828c0 .27.223.49.497.49h4.879c.274 0 .496-.22.496-.49v-1.33c0-.733-.295-1.294-.886-1.685-.59-.39-1.276-.585-2.057-.585-.781 0-1.464.202-2.05.607-.586.404-.879 1.01-.879 1.819v1.174ZM.496 8.462A.493.493 0 0 1 0 7.972V4.879c0-.695.102-1.325.307-1.89.205-.563.472-1.029.8-1.395A4.39 4.39 0 0 1 2.264.677c.443-.244.89-.418 1.343-.522A6.23 6.23 0 0 1 5 0c.647 0 1.262.092 1.843.275.58.183 1.112.46 1.593.832.48.371.861.877 1.142 1.516.281.64.422 1.373.422 2.2v3.149c0 .27-.222.49-.496.49H.496Z" fill="#B20230" mask="url(#b)"/></g><g transform="translate(0 9.23)"><mask id="d" fill="#fff"><use xlink:href="#c"/></mask><path d="M2.071 3.808c0 .808.293 1.415.88 1.819.585.404 1.268.606 2.049.606.78 0 1.466-.195 2.057-.585.59-.39.886-.952.886-1.685v-1.33c0-.27-.222-.49-.496-.49h-4.88a.493.493 0 0 0-.496.49v1.175ZM9.504 0c.274 0 .496.22.496.49v3.149c0 .827-.14 1.56-.422 2.2-.28.639-.662 1.144-1.142 1.515a5.095 5.095 0 0 1-1.593.833A6.087 6.087 0 0 1 5 8.462a6.23 6.23 0 0 1-1.393-.156 5.157 5.157 0 0 1-1.343-.521 4.394 4.394 0 0 1-1.157-.917c-.328-.367-.595-.832-.8-1.396C.102 4.908 0 4.278 0 3.582V.49C0 .22.222 0 .496 0h9.008Z" fill="#B20230" mask="url(#d)"/></g></g></svg>