<?xml version="1.0" encoding="UTF-8"?>
<svg width="68px" height="68px" viewBox="0 0 68 68" version="1.1" xmlns="http://www.w3.org/2000/svg" xmlns:xlink="http://www.w3.org/1999/xlink">
    <title>icon/import 2</title>
    <defs>
        <circle id="path-1" cx="34" cy="34" r="34"></circle>
        <filter x="-4.4%" y="-4.4%" width="108.8%" height="108.8%" filterUnits="objectBoundingBox" id="filter-2">
            <feOffset dx="0" dy="0" in="SourceAlpha" result="shadowOffsetOuter1"></feOffset>
            <feGaussianBlur stdDeviation="1" in="shadowOffsetOuter1" result="shadowBlurOuter1"></feGaussianBlur>
            <feComposite in="shadowBlurOuter1" in2="SourceAlpha" operator="out" result="shadowBlurOuter1"></feComposite>
            <feColorMatrix values="0 0 0 0 0   0 0 0 0 0   0 0 0 0 0  0 0 0 0.349764737 0" type="matrix" in="shadowBlurOuter1"></feColorMatrix>
        </filter>
    </defs>
    <g id="icon/import-2" stroke="none" stroke-width="1" fill="none" fill-rule="evenodd">
        <g id="Oval-Copy-13">
            <use fill="black" fill-opacity="1" filter="url(#filter-2)" xlink:href="#path-1"></use>
            <use fill-opacity="0.499330747" fill="#FFFFFF" fill-rule="evenodd" xlink:href="#path-1"></use>
        </g>
        <circle id="Oval" fill="#3E6E99" cx="34" cy="34" r="23"></circle>
        <path d="M34,25 C35.6568542,25 37,26.3431458 37,28 L37,41 C37,42.6568542 35.6568542,44 34,44 C32.3431458,44 31,42.6568542 31,41 L31,28 C31,26.3431458 32.3431458,25 34,25 Z" id="Rectangle-Copy" fill="#FFFFFF" transform="translate(34.000000, 34.500000) scale(1, -1) rotate(-360.000000) translate(-34.000000, -34.500000) "></path>
        <path d="M34,25 C35.6568542,25 37,26.3431458 37,28 L37,41 C37,42.6568542 35.6568542,44 34,44 C32.3431458,44 31,42.6568542 31,41 L31,28 C31,26.3431458 32.3431458,25 34,25 Z" id="Rectangle-Copy-2" fill="#FFFFFF" transform="translate(34.000000, 34.500000) scale(1, -1) rotate(-90.000000) translate(-34.000000, -34.500000) "></path>
    </g>
</svg>