<svg xmlns="http://www.w3.org/2000/svg" xmlns:xlink="http://www.w3.org/1999/xlink" viewBox="0 0 71.2 14"><defs><style>.cls-1,.cls-3{fill:#fff;}.cls-1,.cls-10,.cls-12,.cls-6,.cls-8{fill-rule:evenodd;}.cls-2{isolation:isolate;}.cls-4{mask:url(#mask);}.cls-5{mask:url(#mask-2-2);}.cls-6{fill:url(#Unbenannter_Verlauf_4);}.cls-7{mask:url(#mask-3);}.cls-8{fill:url(#Unbenannter_Verlauf_4-2);}.cls-9{mask:url(#mask-4-2);}.cls-10{fill:url(#Unbenannter_Verlauf_4-3);}.cls-11{mask:url(#mask-5);}.cls-12{fill:url(#Unbenannter_Verlauf_4-4);}</style><mask id="mask" x="36.2" y="0" width="7.2" height="13" maskUnits="userSpaceOnUse"><g id="mask-2"><polygon id="path-1" class="cls-1" points="36.2 0 43.4 0 43.4 13 36.2 13 36.2 0"/></g></mask><mask id="mask-2-2" x="63.2" y="0" width="4" height="3" maskUnits="userSpaceOnUse"><g id="mask-4"><path id="path-3" class="cls-1" d="M63.52,0a.3.3,0,0,0-.32.26h0V1.87L64.86,3,67.2,1.41,65.14,0Z"/></g></mask><linearGradient id="Unbenannter_Verlauf_4" x1="-129.66" y1="1701.58" x2="-128.66" y2="1701.58" gradientTransform="matrix(4, 0, 0, -3, 581.83, 5106.23)" gradientUnits="userSpaceOnUse"><stop offset="0" stop-color="#fff"/><stop offset="1" stop-color="#fff"/></linearGradient><mask id="mask-3" x="67.2" y="10" width="4" height="3" maskUnits="userSpaceOnUse"><g id="mask-8"><path id="path-7" class="cls-1" d="M67.2,11.7,69.14,13h1.71A.4.4,0,0,0,71,13h0a.31.31,0,0,0,.1-.05h0a.26.26,0,0,0,.1-.19h0V11l-1.46-1Z"/></g></mask><linearGradient id="Unbenannter_Verlauf_4-2" x1="-129.32" y1="1701.69" x2="-128.71" y2="1701.38" gradientTransform="matrix(4, 0, 0, -3, 585.83, 5116.23)" xlink:href="#Unbenannter_Verlauf_4"/><mask id="mask-4-2" x="67.2" y="3" width="4" height="3" maskUnits="userSpaceOnUse"><g id="mask-12"><path id="path-11" class="cls-1" d="M67.2,4.58,69.48,6h0l.82-.52a1.87,1.87,0,0,0,.9-1.57h0L69.74,3Z"/></g></mask><linearGradient id="Unbenannter_Verlauf_4-3" x1="-129.66" y1="1701.58" x2="-128.66" y2="1701.58" gradientTransform="matrix(4, 0, 0, -3, 585.83, 5109.23)" xlink:href="#Unbenannter_Verlauf_4"/><mask id="mask-5" x="63.2" y="7" width="4" height="3" maskUnits="userSpaceOnUse"><g id="mask-16"><path id="path-15" class="cls-1" d="M63.94,7.77A2,2,0,0,0,63.2,8.9h0L64.84,10,67.2,8.42,65.09,7Z"/></g></mask><linearGradient id="Unbenannter_Verlauf_4-4" x1="-129.66" y1="1701.58" x2="-128.66" y2="1701.58" gradientTransform="matrix(4, 0, 0, -3, 581.83, 5113.23)" xlink:href="#Unbenannter_Verlauf_4"/></defs><g id="Ebene_2" data-name="Ebene 2"><g id="Ebene_2-2" data-name="Ebene 2"><g id="Built-on" class="cls-2"><g class="cls-2"><path class="cls-3" d="M0,6H2.32A2.17,2.17,0,0,1,4,6.53a1.8,1.8,0,0,1,.5,1.3,1.5,1.5,0,0,1-.29.91,1.86,1.86,0,0,1-.81.57,1.79,1.79,0,0,1,1,.6A1.68,1.68,0,0,1,4.71,11a2,2,0,0,1-.52,1.39A2.25,2.25,0,0,1,2.48,13H0ZM2.15,9.06a2,2,0,0,0,1.24-.34,1.09,1.09,0,0,0,.42-.91c0-.79-.48-1.18-1.43-1.18H.7V9.06Zm.45,3.31A1.5,1.5,0,0,0,3.73,12a1.29,1.29,0,0,0,.33-.91c0-.95-.6-1.43-1.79-1.43H.7v2.7Z"/><path class="cls-3" d="M9.41,13v-.49a1.55,1.55,0,0,1-.56.48,1.67,1.67,0,0,1-.71.13,1.71,1.71,0,0,1-1.43-.56,2.91,2.91,0,0,1-.45-1.82V7.89H7V11a1.66,1.66,0,0,0,.32,1.12,1.09,1.09,0,0,0,.86.36C9,12.49,9.41,12,9.41,11V7.89h.7V13Z"/><path class="cls-3" d="M12.6,6.71a.46.46,0,0,1-.79-.33A.48.48,0,0,1,12,6a.43.43,0,0,1,.32-.14A.45.45,0,0,1,12.6,6a.47.47,0,0,1,.13.34A.44.44,0,0,1,12.6,6.71ZM11.92,13V7.89h.7V13Z"/><path class="cls-3" d="M14.48,13V6.12l.7-.34V13Z"/><path class="cls-3" d="M18.31,13.12c-.67,0-1-.39-1-1.17V8.52h-.87V7.89h.87V6.13l.7-.35V7.89h1.3v.63H18v3.13a1.37,1.37,0,0,0,.11.6.45.45,0,0,0,.44.21,1.42,1.42,0,0,0,.77-.3l-.08.73A2,2,0,0,1,18.31,13.12Z"/><path class="cls-3" d="M24.86,13.12a2,2,0,0,1-1.59-.71,2.91,2.91,0,0,1-.6-2,2.94,2.94,0,0,1,.6-2,2,2,0,0,1,1.59-.72,2,2,0,0,1,1.6.7,3,3,0,0,1,.59,2,3,3,0,0,1-.6,2A2,2,0,0,1,24.86,13.12Zm0-.63A1.26,1.26,0,0,0,25.94,12a2.66,2.66,0,0,0,.38-1.51A2.6,2.6,0,0,0,26,8.94a1.25,1.25,0,0,0-1.09-.54,1.28,1.28,0,0,0-1.09.52,2.64,2.64,0,0,0-.37,1.53,2.6,2.6,0,0,0,.37,1.5A1.25,1.25,0,0,0,24.86,12.49Z"/><path class="cls-3" d="M31.65,13V9.88a1.69,1.69,0,0,0-.32-1.13,1.12,1.12,0,0,0-.87-.35c-.84,0-1.26.49-1.26,1.46V13h-.7V7.89h.7v.56a1.51,1.51,0,0,1,1.32-.68,1.66,1.66,0,0,1,1.39.57,3,3,0,0,1,.44,1.83V13Z"/></g></g><g id="Group-27"><g id="Group-10"><path id="Fill-1" class="cls-1" d="M46.81.27V12.73a.27.27,0,0,1-.08.19h0a.18.18,0,0,1-.07.05.2.2,0,0,1-.11,0H44.92a.26.26,0,0,1-.25-.27V.27A.26.26,0,0,1,44.92,0h1.63a.27.27,0,0,1,.26.27"/><path id="Fill-3" class="cls-1" d="M54.05,11.13H50.91a.26.26,0,0,1-.23-.21V.26A.26.26,0,0,0,50.43,0H48.8a.26.26,0,0,0-.26.26V12.73a.27.27,0,0,0,.26.27h5.25a.26.26,0,0,0,.25-.26V11.39a.26.26,0,0,0-.25-.26"/><g id="Group-7"><g class="cls-4"><path id="Fill-5" class="cls-1" d="M43.37,12.61,40.07,6.4a.28.28,0,0,1,0-.25L43.13.39A.27.27,0,0,0,43,0a.27.27,0,0,0-.12,0H41.06a.26.26,0,0,0-.22.13l-2.5,4.72V.26A.26.26,0,0,0,38.08,0H36.45a.26.26,0,0,0-.25.26V12.73a.26.26,0,0,0,.25.27h1.63a.27.27,0,0,0,.26-.27V9.86l-.76-3.59,3.5,6.59a.24.24,0,0,0,.22.14h1.85a.26.26,0,0,0,.25-.26.28.28,0,0,0,0-.13"/></g></g><path id="Fill-8" class="cls-1" d="M60.2.26V1.61a.25.25,0,0,1-.25.26H56.79l1,.73a.14.14,0,0,1,.06.11v10a.27.27,0,0,1-.26.27H56a.26.26,0,0,1-.25-.27V2.14a.27.27,0,0,0-.23-.27H53.64a.26.26,0,0,1-.26-.26V.26A.26.26,0,0,1,53.64,0H60a.26.26,0,0,1,.25.26"/></g><g id="Group-13"><g class="cls-5"><path id="Fill-11" class="cls-6" d="M63.52,0a.3.3,0,0,0-.32.26h0V1.87L64.86,3,67.2,1.41,65.14,0Z"/></g></g><g id="Group-16"><g class="cls-7"><path id="Fill-14" class="cls-8" d="M67.2,11.7,69.14,13h1.71A.4.4,0,0,0,71,13h0a.31.31,0,0,0,.1-.05h0a.26.26,0,0,0,.1-.19h0V11l-1.46-1Z"/></g></g><path id="Fill-17" class="cls-1" d="M71.2.2V1.79L64,6.52A1.83,1.83,0,0,0,63.2,8V4l6.07-4H70.9a.3.3,0,0,1,.3.2"/><g id="Group-21"><g class="cls-9"><path id="Fill-19" class="cls-10" d="M67.2,4.58,69.48,6h0l.82-.52a1.87,1.87,0,0,0,.9-1.57h0L69.74,3Z"/></g></g><g id="Group-24"><g class="cls-11"><path id="Fill-22" class="cls-12" d="M63.94,7.77A2,2,0,0,0,63.2,8.9h0L64.84,10,67.2,8.42,65.09,7Z"/></g></g><path id="Fill-25" class="cls-1" d="M70.38,5.64h0L63.2,10.7V14l8-5.6V4a2,2,0,0,1-.82,1.64"/></g></g></g></svg>