<svg xmlns="http://www.w3.org/2000/svg" xmlns:xlink="http://www.w3.org/1999/xlink" viewBox="0 0 71.2 14"><defs><mask id="mask" x="36.2" y="0" width="7.2" height="13" maskUnits="userSpaceOnUse"><g id="mask-2"><path id="path-1" class="cls-1" d="M36.2 0h7.2v13h-7.2V0z"/></g></mask><mask id="mask-2-2" x="63.2" y="0" width="4" height="3" maskUnits="userSpaceOnUse"><g id="mask-4"><path id="path-3" class="cls-1" d="M63.52 0a.3.3 0 0 0-.32.26v1.61L64.86 3l2.34-1.59L65.14 0Z"/></g></mask><mask id="mask-3" x="67.2" y="10" width="4" height="3" maskUnits="userSpaceOnUse"><g id="mask-8"><path id="path-7" class="cls-1" d="m67.2 11.7 1.94 1.3h1.71a.4.4 0 0 0 .15 0 .31.31 0 0 0 .1-.05.26.26 0 0 0 .1-.19V11l-1.46-1Z"/></g></mask><mask id="mask-4-2" x="67.2" y="3" width="4" height="3" maskUnits="userSpaceOnUse"><g id="mask-12"><path id="path-11" class="cls-1" d="M67.2 4.58 69.48 6l.82-.52a1.87 1.87 0 0 0 .9-1.57L69.74 3Z"/></g></mask><mask id="mask-5" x="63.2" y="7" width="4" height="3" maskUnits="userSpaceOnUse"><g id="mask-16"><path id="path-15" class="cls-1" d="M63.94 7.77a2 2 0 0 0-.74 1.13l1.64 1.1 2.36-1.58L65.09 7Z"/></g></mask><linearGradient id="Unbenannter_Verlauf_4" x1="-129.66" y1="1701.58" x2="-128.66" y2="1701.58" gradientTransform="matrix(4 0 0 -3 581.83 5106.23)" gradientUnits="userSpaceOnUse"><stop offset="0" stop-color="#fff"/><stop offset="1" stop-color="#fff"/></linearGradient><linearGradient id="Unbenannter_Verlauf_4-2" x1="-129.32" y1="1701.69" x2="-128.71" y2="1701.38" gradientTransform="matrix(4 0 0 -3 585.83 5116.23)" xlink:href="#Unbenannter_Verlauf_4"/><linearGradient id="Unbenannter_Verlauf_4-3" x1="-129.66" y1="1701.58" x2="-128.66" y2="1701.58" gradientTransform="matrix(4 0 0 -3 585.83 5109.23)" xlink:href="#Unbenannter_Verlauf_4"/><linearGradient id="Unbenannter_Verlauf_4-4" x1="-129.66" y1="1701.58" x2="-128.66" y2="1701.58" gradientTransform="matrix(4 0 0 -3 581.83 5113.23)" xlink:href="#Unbenannter_Verlauf_4"/><style>.cls-1,.cls-3{fill:#fff}.cls-1{fill-rule:evenodd}.cls-2{isolation:isolate}</style></defs><g id="Ebene_2" data-name="Ebene 2"><g id="Ebene_2-2" data-name="Ebene 2"><g id="Built-on" class="cls-2"><g class="cls-2"><path class="cls-3" d="M0 6h2.32A2.17 2.17 0 0 1 4 6.53a1.8 1.8 0 0 1 .5 1.3 1.5 1.5 0 0 1-.29.91 1.86 1.86 0 0 1-.81.57 1.79 1.79 0 0 1 1 .6A1.68 1.68 0 0 1 4.71 11a2 2 0 0 1-.52 1.39 2.25 2.25 0 0 1-1.71.61H0Zm2.15 3.06a2 2 0 0 0 1.24-.34 1.09 1.09 0 0 0 .42-.91c0-.79-.48-1.18-1.43-1.18H.7v2.43Zm.45 3.31A1.5 1.5 0 0 0 3.73 12a1.29 1.29 0 0 0 .33-.91c0-.95-.6-1.43-1.79-1.43H.7v2.7ZM9.41 13v-.49a1.55 1.55 0 0 1-.56.48 1.67 1.67 0 0 1-.71.13 1.71 1.71 0 0 1-1.43-.56 2.91 2.91 0 0 1-.45-1.82V7.89H7V11a1.66 1.66 0 0 0 .32 1.12 1.09 1.09 0 0 0 .86.36C9 12.49 9.41 12 9.41 11V7.89h.7V13ZM12.6 6.71a.46.46 0 0 1-.79-.33A.48.48 0 0 1 12 6a.43.43 0 0 1 .32-.14.45.45 0 0 1 .28.14.47.47 0 0 1 .13.34.44.44 0 0 1-.13.37ZM11.92 13V7.89h.7V13ZM14.48 13V6.12l.7-.34V13ZM18.31 13.12c-.67 0-1-.39-1-1.17V8.52h-.87v-.63h.87V6.13l.7-.35v2.11h1.3v.63H18v3.13a1.37 1.37 0 0 0 .11.6.45.45 0 0 0 .44.21 1.42 1.42 0 0 0 .77-.3l-.08.73a2 2 0 0 1-.93.23ZM24.86 13.12a2 2 0 0 1-1.59-.71 2.91 2.91 0 0 1-.6-2 2.94 2.94 0 0 1 .6-2 2 2 0 0 1 1.59-.72 2 2 0 0 1 1.6.7 3 3 0 0 1 .59 2 3 3 0 0 1-.6 2 2 2 0 0 1-1.59.73Zm0-.63a1.26 1.26 0 0 0 1.08-.49 2.66 2.66 0 0 0 .38-1.51A2.6 2.6 0 0 0 26 8.94a1.25 1.25 0 0 0-1.09-.54 1.28 1.28 0 0 0-1.09.52 2.64 2.64 0 0 0-.37 1.53 2.6 2.6 0 0 0 .37 1.5 1.25 1.25 0 0 0 1.04.54ZM31.65 13V9.88a1.69 1.69 0 0 0-.32-1.13 1.12 1.12 0 0 0-.87-.35c-.84 0-1.26.49-1.26 1.46V13h-.7V7.89h.7v.56a1.51 1.51 0 0 1 1.32-.68 1.66 1.66 0 0 1 1.39.57 3 3 0 0 1 .44 1.83V13Z"/></g></g><g id="Group-27"><g id="Group-10"><path id="Fill-1" class="cls-1" d="M46.81.27v12.46a.27.27 0 0 1-.08.19.18.18 0 0 1-.07.05.2.2 0 0 1-.11 0h-1.63a.26.26 0 0 1-.25-.27V.27a.26.26 0 0 1 .25-.27h1.63a.27.27 0 0 1 .26.27"/><path id="Fill-3" class="cls-1" d="M54.05 11.13h-3.14a.26.26 0 0 1-.23-.21V.26a.26.26 0 0 0-.25-.26H48.8a.26.26 0 0 0-.26.26v12.47a.27.27 0 0 0 .26.27h5.25a.26.26 0 0 0 .25-.26v-1.35a.26.26 0 0 0-.25-.26"/><g style="mask:url(#mask)" id="Group-7"><path id="Fill-5" class="cls-1" d="m43.37 12.61-3.3-6.21a.28.28 0 0 1 0-.25L43.13.39A.27.27 0 0 0 43 0a.27.27 0 0 0-.12 0h-1.82a.26.26 0 0 0-.22.13l-2.5 4.72V.26a.26.26 0 0 0-.26-.26h-1.63a.26.26 0 0 0-.25.26v12.47a.26.26 0 0 0 .25.27h1.63a.27.27 0 0 0 .26-.27V9.86l-.76-3.59 3.5 6.59a.24.24 0 0 0 .22.14h1.85a.26.26 0 0 0 .25-.26.28.28 0 0 0 0-.13"/></g><path id="Fill-8" class="cls-1" d="M60.2.26v1.35a.25.25 0 0 1-.25.26h-3.16l1 .73a.14.14 0 0 1 .06.11v10a.27.27 0 0 1-.26.27H56a.26.26 0 0 1-.25-.27V2.14a.27.27 0 0 0-.23-.27h-1.88a.26.26 0 0 1-.26-.26V.26a.26.26 0 0 1 .26-.26H60a.26.26 0 0 1 .25.26"/></g><g style="mask:url(#mask-2-2)" id="Group-13"><path id="Fill-11" d="M63.52 0a.3.3 0 0 0-.32.26v1.61L64.86 3l2.34-1.59L65.14 0Z" style="fill:url(#Unbenannter_Verlauf_4);fill-rule:evenodd"/></g><g style="mask:url(#mask-3)" id="Group-16"><path id="Fill-14" d="m67.2 11.7 1.94 1.3h1.71a.4.4 0 0 0 .15 0 .31.31 0 0 0 .1-.05.26.26 0 0 0 .1-.19V11l-1.46-1Z" style="fill:url(#Unbenannter_Verlauf_4-2);fill-rule:evenodd"/></g><path id="Fill-17" class="cls-1" d="M71.2.2v1.59L64 6.52A1.83 1.83 0 0 0 63.2 8V4l6.07-4h1.63a.3.3 0 0 1 .3.2"/><g style="mask:url(#mask-4-2)" id="Group-21"><path id="Fill-19" d="M67.2 4.58 69.48 6l.82-.52a1.87 1.87 0 0 0 .9-1.57L69.74 3Z" style="fill:url(#Unbenannter_Verlauf_4-3);fill-rule:evenodd"/></g><g style="mask:url(#mask-5)" id="Group-24"><path id="Fill-22" d="M63.94 7.77a2 2 0 0 0-.74 1.13l1.64 1.1 2.36-1.58L65.09 7Z" style="fill:url(#Unbenannter_Verlauf_4-4);fill-rule:evenodd"/></g><path id="Fill-25" class="cls-1" d="M70.38 5.64 63.2 10.7V14l8-5.6V4a2 2 0 0 1-.82 1.64"/></g></g></g></svg>