<svg width="284" height="105" xmlns="http://www.w3.org/2000/svg"><defs><linearGradient x1="50%" y1="0%" x2="50%" y2="100%" id="a"><stop stop-color="#3E6E99" stop-opacity=".446" offset="0%"/><stop stop-color="#2A2231" stop-opacity="0" offset="100%"/></linearGradient><linearGradient x1="50%" y1="0%" x2="50%" y2="100%" id="b"><stop stop-color="#3E6E99" stop-opacity=".446" offset="0%"/><stop stop-color="#2A2231" stop-opacity="0" offset="100%"/></linearGradient><linearGradient x1="50%" y1="0%" x2="50%" y2="100%" id="c"><stop stop-color="#3E6E99" stop-opacity=".446" offset="0%"/><stop stop-color="#2A2231" stop-opacity="0" offset="100%"/></linearGradient><linearGradient x1="50%" y1="0%" x2="50%" y2="100%" id="d"><stop stop-color="#3E6E99" stop-opacity=".446" offset="0%"/><stop stop-color="#2A2231" stop-opacity="0" offset="100%"/></linearGradient><linearGradient x1="50%" y1="0%" x2="50%" y2="100%" id="e"><stop stop-color="#3E6E99" stop-opacity=".446" offset="0%"/><stop stop-color="#2A2231" stop-opacity="0" offset="100%"/></linearGradient></defs><g transform="matrix(-1 0 0 1 284 0)" fill-rule="nonzero" fill="none" opacity=".499"><path d="M284 8.385v96h-11.978C252.134 96.866 238 77.725 238 55.298c0-20.511 11.822-38.274 29.056-46.912H284Z" fill="url(#a)"/><ellipse fill="url(#b)" cx="163" cy="37.693" rx="38" ry="37.693"/><circle fill="url(#c)" cx="231" cy="65.385" r="38"/><path d="M38 52.385c20.987 0 38 17.061 38 38.107 0 4.902-.923 9.589-2.605 13.893H2.605A38.104 38.104 0 0 1 0 90.492c0-21.046 17.013-38.107 38-38.107Z" fill="url(#d)"/><circle fill="url(#c)" cx="120" cy="59.385" r="26"/><path d="M86 65.385c14.36 0 26 11.5 26 25.686 0 4.462-1.151 8.658-3.177 12.314H63.177A25.328 25.328 0 0 1 60 91.07c0-14.186 11.64-25.686 26-25.686Z" fill="url(#e)"/></g></svg>