<svg width="261" height="113" xmlns="http://www.w3.org/2000/svg"><defs><linearGradient x1="50%" y1="0%" x2="50%" y2="100%" id="a"><stop stop-color="#3E6E99" stop-opacity=".446" offset="0%"/><stop stop-color="#2A2231" stop-opacity="0" offset="100%"/></linearGradient><linearGradient x1="50%" y1="0%" x2="50%" y2="100%" id="b"><stop stop-color="#3E6E99" stop-opacity=".446" offset="0%"/><stop stop-color="#2A2231" stop-opacity="0" offset="100%"/></linearGradient><linearGradient x1="50%" y1="164.972%" x2="50%" y2="-.011%" id="c"><stop stop-color="#2A2231" stop-opacity="0" offset="0%"/><stop stop-color="#3E6E99" stop-opacity=".7" offset="100%"/></linearGradient><linearGradient x1="50%" y1="0%" x2="50%" y2="100%" id="d"><stop stop-color="#3E6E99" stop-opacity=".446" offset="0%"/><stop stop-color="#2A2231" stop-opacity="0" offset="100%"/></linearGradient><linearGradient x1="50%" y1="0%" x2="50%" y2="100%" id="e"><stop stop-color="#3E6E99" stop-opacity=".446" offset="0%"/><stop stop-color="#2A2231" stop-opacity="0" offset="100%"/></linearGradient></defs><g transform="matrix(-1 0 0 1 261 0)" fill-rule="nonzero" fill="none" opacity=".504"><circle fill="url(#a)" transform="matrix(-1 0 0 1 194 0)" cx="97" cy="46" r="36"/><path d="M56 26c19.882 0 36 16.093 36 35.944A35.754 35.754 0 0 1 84.428 84H27.573A35.754 35.754 0 0 1 20 61.944C20 42.093 36.118 26 56 26ZM225 55c19.882 0 36 16.093 36 35.944A35.754 35.754 0 0 1 253.428 113h-56.855A35.754 35.754 0 0 1 189 90.944C189 71.093 205.118 55 225 55Z" fill="url(#b)"/><path d="M85.5 56C99.031 56 110 66.905 110 80.356a24.41 24.41 0 0 1-.272 3.644H61.273A24.409 24.409 0 0 1 61 80.356C61 66.905 71.97 56 85.5 56ZM189.5 75c13.531 0 24.5 10.905 24.5 24.356a24.41 24.41 0 0 1-.272 3.644h-48.455a24.41 24.41 0 0 1-.273-3.644C165 85.905 175.97 75 189.5 75Z" fill-opacity=".5" fill="url(#c)"/><path d="M164.5 43c13.531 0 24.5 10.992 24.5 24.55A24.49 24.49 0 0 1 182.688 84h-36.376A24.49 24.49 0 0 1 140 67.55C140 53.993 150.97 43 164.5 43Z" fill="url(#d)"/><path d="M7.713 0C31.068 0 50 19.028 50 42.5S31.068 85 7.713 85C5.079 85 2.5 84.758 0 84.295V.705C2.5.242 5.079 0 7.713 0Z" fill="url(#e)"/></g></svg>