<svg width="26" height="28" xmlns="http://www.w3.org/2000/svg"><g transform="translate(.933)" fill="none" fill-rule="evenodd"><g transform="translate(0 2.8)"><circle fill="#F06543" cx="12.133" cy="12.133" r="12.133"/><circle fill="#FFF" cx="12.133" cy="12.133" r="11.2"/><circle fill="#F06543" cx="12.133" cy="12.133" r="10.267"/></g><g fill="#FFF"><path d="M18.188 9.303a.906.906 0 0 1 .002 1.287l-5.318 5.277a.924.924 0 0 1-1.3.001.906.906 0 0 1-.002-1.287l5.318-5.277a.924.924 0 0 1 1.3-.001Z"/><path d="M12.764 15.853a.929.929 0 0 1-1.307 0l-3.325-3.298a.91.91 0 0 1 0-1.294.929.929 0 0 1 1.308.001l3.325 3.298a.91.91 0 0 1 0 1.293Z"/></g><path d="M21.467 14.933a.933.933 0 1 1-1.867 0 .933.933 0 0 1 1.867 0ZM2.8 14.933a.933.933 0 1 1 1.867 0 .933.933 0 0 1-1.867 0Z" fill="#FFF"/><rect fill="#FFF" transform="rotate(-180 12.133 5.133)" x="11.2" y="3.733" width="1.867" height="2.8" rx=".933"/><path d="M14 .933a.933.933 0 0 1-.933.934H11.2A.933.933 0 0 1 11.2 0h1.867c.515 0 .933.418.933.933Z" fill="#F06543"/><rect fill="#FFF" transform="rotate(-180 12.133 23.333)" x="11.2" y="22.4" width="1.867" height="1.867" rx=".933"/></g></svg>