
<svg width="355px" height="159px" viewBox="0 0 355 159" version="1.1" xmlns="http://www.w3.org/2000/svg" xmlns:xlink="http://www.w3.org/1999/xlink">
    <title>Group 5</title>
    <defs>
        <linearGradient x1="50%" y1="100%" x2="50%" y2="-2.96410775e-15%" id="linearGradient-1">
            <stop stop-color="#3E6E99" stop-opacity="0.5" offset="0%"></stop>
            <stop stop-color="#2A2231" stop-opacity="0" offset="100%"></stop>
        </linearGradient>
        <linearGradient x1="50%" y1="115.259024%" x2="50%" y2="-2.96410775e-15%" id="linearGradient-2">
            <stop stop-color="#2A2231" stop-opacity="0" offset="0%"></stop>
            <stop stop-color="#3E6E99" stop-opacity="0.5" offset="100%"></stop>
        </linearGradient>
        <linearGradient x1="50%" y1="164.972052%" x2="50%" y2="-0.0108412836%" id="linearGradient-3">
            <stop stop-color="#2A2231" stop-opacity="0" offset="0%"></stop>
            <stop stop-color="#3E6E99" stop-opacity="0.7" offset="100%"></stop>
        </linearGradient>
        <linearGradient x1="50%" y1="117.396585%" x2="50%" y2="-0.0108412836%" id="linearGradient-4">
            <stop stop-color="#2A2231" stop-opacity="0" offset="0%"></stop>
            <stop stop-color="#3E6E99" stop-opacity="0.7" offset="100%"></stop>
        </linearGradient>
        <linearGradient x1="50%" y1="100%" x2="50%" y2="-0.0108412836%" id="linearGradient-5">
            <stop stop-color="#2A2231" stop-opacity="0" offset="0%"></stop>
            <stop stop-color="#3E6E99" stop-opacity="0.7" offset="100%"></stop>
        </linearGradient>
    </defs>
    <g id="UI-Design" stroke="none" stroke-width="1" fill="none" fill-rule="evenodd" opacity="0.601981027">
        <g id="Bubbles" transform="translate(0.000000, -11.000000)" fill-rule="nonzero">
            <g id="Group-5" transform="translate(0.000000, 11.000000)">
                <circle id="Oval" fill-opacity="0.46" fill="url(#linearGradient-1)" transform="translate(182.070079, 86.410000) scale(-1, -1) translate(-182.070079, -86.410000) " cx="182.070079" cy="86.41" r="67.42"></circle>
                <path d="M105.070079,48.99 C142.305117,48.99 172.490079,79.1749622 172.490079,116.41 C172.490079,132.002512 167.196868,146.358728 158.309317,157.779778 L51.8308417,157.779778 C42.9432901,146.358728 37.6500792,132.002512 37.6500792,116.41 C37.6500792,79.1749622 67.8350413,48.99 105.070079,48.99 Z" id="Combined-Shape" fill-opacity="0.45" fill="url(#linearGradient-2)"></path>
                <path d="M160.120079,104.76 C185.591452,104.76 206.240079,125.408627 206.240079,150.88 C206.240079,153.224967 206.06507,155.529058 205.727401,157.779926 L114.512757,157.779926 C114.175088,155.529058 114.000079,153.224967 114.000079,150.88 C114.000079,125.408627 134.648707,104.76 160.120079,104.76 Z" id="Combined-Shape" fill-opacity="0.5" fill="url(#linearGradient-3)"></path>
                <path d="M308.120079,80.76 C333.591452,80.76 354.240079,101.408627 354.240079,126.88 C354.240079,138.766479 349.743389,149.602701 342.358321,157.78035 L273.881837,157.78035 C266.496769,149.602701 262.000079,138.766479 262.000079,126.88 C262.000079,101.408627 282.648707,80.76 308.120079,80.76 Z" id="Combined-Shape" fill-opacity="0.45" fill="url(#linearGradient-4)"></path>
                <path d="M14.5000792,0 C58.4067168,0 94.0000792,35.5933624 94.0000792,79.5 C94.0000792,123.406638 58.4067168,159 14.5000792,159 C9.54791707,159 4.70151011,158.547208 4.38760139e-13,157.680767 L4.41424675e-13,1.31923309 C4.70151011,0.452791601 9.54791707,0 14.5000792,0 Z" id="Combined-Shape" fill-opacity="0.45" fill="url(#linearGradient-5)"></path>
            </g>
        </g>
    </g>
</svg>