<svg width="355" height="159" xmlns="http://www.w3.org/2000/svg"><defs><linearGradient x1="50%" y1="100%" x2="50%" y2="0%" id="a"><stop stop-color="#3E6E99" stop-opacity=".5" offset="0%"/><stop stop-color="#2A2231" stop-opacity="0" offset="100%"/></linearGradient><linearGradient x1="50%" y1="115.259%" x2="50%" y2="0%" id="b"><stop stop-color="#2A2231" stop-opacity="0" offset="0%"/><stop stop-color="#3E6E99" stop-opacity=".5" offset="100%"/></linearGradient><linearGradient x1="50%" y1="164.972%" x2="50%" y2="-.011%" id="c"><stop stop-color="#2A2231" stop-opacity="0" offset="0%"/><stop stop-color="#3E6E99" stop-opacity=".7" offset="100%"/></linearGradient><linearGradient x1="50%" y1="117.397%" x2="50%" y2="-.011%" id="d"><stop stop-color="#2A2231" stop-opacity="0" offset="0%"/><stop stop-color="#3E6E99" stop-opacity=".7" offset="100%"/></linearGradient><linearGradient x1="50%" y1="100%" x2="50%" y2="-.011%" id="e"><stop stop-color="#2A2231" stop-opacity="0" offset="0%"/><stop stop-color="#3E6E99" stop-opacity=".7" offset="100%"/></linearGradient></defs><g fill-rule="nonzero" fill="none" opacity=".602"><circle fill-opacity=".46" fill="url(#a)" transform="rotate(180 182.07 86.41)" cx="182.07" cy="86.41" r="67.42"/><path d="M105.07 48.99c37.235 0 67.42 30.185 67.42 67.42 0 15.593-5.293 29.949-14.18 41.37H51.83c-8.887-11.421-14.18-25.777-14.18-41.37 0-37.235 30.185-67.42 67.42-67.42Z" fill-opacity=".45" fill="url(#b)"/><path d="M160.12 104.76c25.471 0 46.12 20.649 46.12 46.12 0 2.345-.175 4.65-.513 6.9h-91.214a46.488 46.488 0 0 1-.513-6.9c0-25.471 20.649-46.12 46.12-46.12Z" fill-opacity=".5" fill="url(#c)"/><path d="M308.12 80.76c25.471 0 46.12 20.649 46.12 46.12 0 11.886-4.497 22.723-11.882 30.9h-68.476c-7.385-8.177-11.882-19.014-11.882-30.9 0-25.471 20.649-46.12 46.12-46.12Z" fill-opacity=".45" fill="url(#d)"/><path d="M14.5 0C58.407 0 94 35.593 94 79.5S58.407 159 14.5 159c-4.952 0-9.798-.453-14.5-1.32V1.32A79.953 79.953 0 0 1 14.5 0Z" fill-opacity=".45" fill="url(#e)"/></g></svg>