<svg width="526" height="491" xmlns="http://www.w3.org/2000/svg"><defs><linearGradient x1="50%" y1="0%" x2="50%" y2="100%" id="a"><stop stop-color="#3E6E99" stop-opacity=".298" offset="0%"/><stop stop-color="#DDF0FF" stop-opacity="0" offset="100%"/></linearGradient><linearGradient x1="50%" y1="0%" x2="50%" y2="100%" id="b"><stop stop-color="#3E6E99" stop-opacity=".298" offset="0%"/><stop stop-color="#DDF0FF" stop-opacity="0" offset="100%"/></linearGradient><linearGradient x1="50%" y1="0%" x2="50%" y2="100%" id="c"><stop stop-color="#3E6E99" stop-opacity=".298" offset="0%"/><stop stop-color="#DDF0FF" stop-opacity="0" offset="100%"/></linearGradient><linearGradient x1="50%" y1="0%" x2="50%" y2="100%" id="d"><stop stop-color="#3E6E99" stop-opacity=".298" offset="0%"/><stop stop-color="#DDF0FF" stop-opacity="0" offset="100%"/></linearGradient><linearGradient x1="50%" y1="0%" x2="50%" y2="100%" id="e"><stop stop-color="#3E6E99" stop-opacity=".298" offset="0%"/><stop stop-color="#DDF0FF" stop-opacity="0" offset="100%"/></linearGradient><linearGradient x1="50%" y1="0%" x2="50%" y2="100%" id="f"><stop stop-color="#3E6E99" stop-opacity=".298" offset="0%"/><stop stop-color="#DDF0FF" stop-opacity="0" offset="100%"/></linearGradient><linearGradient x1="50%" y1="0%" x2="50%" y2="100%" id="g"><stop stop-color="#3E6E99" stop-opacity=".298" offset="0%"/><stop stop-color="#DDF0FF" stop-opacity="0" offset="100%"/></linearGradient></defs><g fill-rule="nonzero" fill="none" opacity=".497"><path d="M525.999 0v192.002c-36.042-16.924-60.999-53.548-60.999-96C465 53.547 489.957 16.923 525.999 0Z" fill="url(#a)"/><path d="M430.5 234c36.807 0 70.332 14.053 95.501 37.087v208.826A142.201 142.201 0 0 1 513.654 490l-166.305.002C311.987 464.28 289 422.574 289 375.5c0-78.148 63.352-141.5 141.5-141.5Z" fill="url(#b)"/><circle fill="url(#c)" cx="55" cy="383.001" r="55"/><circle fill="url(#c)" cx="241.5" cy="318.501" r="72.5"/><path d="M501.506 397a93.625 93.625 0 0 1 24.492 3.24l-.001 89.76H408l.009-1.036c.825-50.931 42.37-91.964 93.497-91.964Z" fill="url(#d)"/><path d="M283.42 422c37.235 0 67.42 30.185 67.42 67.42l-.006.63-134.831.001c-.002-.21-.003-.42-.003-.631 0-37.235 30.185-67.42 67.42-67.42Z" fill="url(#e)"/><path d="M442.161 440c31.23 0 57.5 21.233 65.161 50.05H377c7.662-28.817 33.932-50.05 65.161-50.05Z" fill="url(#f)"/><path d="M215.586 456c21.379 0 39.36 14.546 44.587 34.28H171c5.227-19.734 23.208-34.28 44.586-34.28Z" fill="url(#g)"/><circle fill="url(#c)" cx="369.65" cy="237.111" r="30"/></g></svg>