<svg xmlns="http://www.w3.org/2000/svg" viewBox="0 0 380.34 117.21"><defs><style>.cls-1{fill:#fff}.cls-2{fill:#b20230}</style></defs><g id="Ebene_2" data-name="Ebene 2"><g id="Ebene_1-2" data-name="Ebene 1"><path class="cls-1" d="M168.14 91.56a22 22 0 0 1-9.54-2.14 20.64 20.64 0 0 1-6.6-4.82 1.15 1.15 0 0 1 .14-1.64l3.94-3.38a1.18 1.18 0 0 1 1.59.08q4.89 4.78 10.65 4.78a11.7 11.7 0 0 0 6.3-1.5 4.93 4.93 0 0 0 2.38-4.43 5.59 5.59 0 0 0-1.73-4 12.71 12.71 0 0 0-3.56-2.65c-1.22-.57-3-1.32-5.39-2.23-4.74-1.77-8.34-3.74-10.77-5.93a11.11 11.11 0 0 1-3.65-8.67 10.66 10.66 0 0 1 4.43-9 18.24 18.24 0 0 1 11.27-3.34 19.56 19.56 0 0 1 14.89 6.13 1.16 1.16 0 0 1-.12 1.68l-3.74 3.11a1.18 1.18 0 0 1-1.56-.06 13.66 13.66 0 0 0-9.56-3.74 10.26 10.26 0 0 0-5.66 1.37 4.33 4.33 0 0 0-2.1 3.84 4.85 4.85 0 0 0 .68 2.51 6.54 6.54 0 0 0 2.47 2.14c1.19.67 2.13 1.17 2.83 1.51s2 .86 3.88 1.59a35.65 35.65 0 0 1 11.27 6q3.87 3.38 3.88 9.49a11.65 11.65 0 0 1-4.48 9.72q-4.48 3.58-12.14 3.58ZM197.83 33.93a4.93 4.93 0 0 1-3.56 1.41 4.66 4.66 0 0 1-3.51-1.46 5.16 5.16 0 0 1-1.17-5.24 2.31 2.31 0 0 1 .24-.56 5.09 5.09 0 0 1 6.25-2.51 2 2 0 0 1 .57.27 5.29 5.29 0 0 1 2.64 4.57 4.69 4.69 0 0 1-1.46 3.52Zm-7.48 54.64V45.73a1.9 1.9 0 0 1 1.9-1.9h4.14a1.9 1.9 0 0 1 1.9 1.9v42.84a1.9 1.9 0 0 1-1.9 1.9h-4.14a1.9 1.9 0 0 1-1.9-1.9ZM222.16 108.75l-2.44-4a1.17 1.17 0 0 1 .89-1.78q8.59-.7 12.1-3.38a9.62 9.62 0 0 0 3.88-8.08v-2.58a1.16 1.16 0 0 0-2-.85 14.52 14.52 0 0 1-10.1 3.48 17.16 17.16 0 0 1-13.64-6.39q-5.43-6.37-5.43-18.07 0-11.31 5.34-17.84a17.22 17.22 0 0 1 14-6.53 15.54 15.54 0 0 1 9.9 3.18 1.16 1.16 0 0 0 1.87-.91 1.16 1.16 0 0 1 1.16-1.17h5.61a1.17 1.17 0 0 1 1.23 1.17v43.55q0 10.68-5.7 15.42-5.52 4.59-15.58 5.34a1.18 1.18 0 0 1-1.09-.56Zm4-24.58a10.9 10.9 0 0 0 5.8-1.78 13.46 13.46 0 0 0 4.44-4.5 1.27 1.27 0 0 0 .17-.63V56.59a1.17 1.17 0 0 0-.19-.65 12.66 12.66 0 0 0-4.47-4.17 11.48 11.48 0 0 0-5.73-1.77q-6.19 0-9.44 4.42T213.5 67.1c0 5.3 1.17 9.46 3.51 12.51a11 11 0 0 0 9.17 4.56ZM281.89 90.47a1.17 1.17 0 0 1-1.17-1.17v-27q0-6.3-2.69-9.27a9.45 9.45 0 0 0-7.35-3q-10.77 0-10.77 12V89.3a1.17 1.17 0 0 1-1.16 1.17h-5.61A1.18 1.18 0 0 1 252 89.3V45a1.17 1.17 0 0 1 1.17-1.17h5.61a1.16 1.16 0 0 1 1.13 1.17v.54a1.16 1.16 0 0 0 1.95.84A14.36 14.36 0 0 1 272 42.73q8.22 0 12.46 5t4.24 15.92V89.3a1.17 1.17 0 0 1-1.16 1.17ZM0 29.83a3.17 3.17 0 0 1 3.17-3.17h20.38a35.51 35.51 0 0 1 14.23 2.69 24.68 24.68 0 0 1 9.82 7.3A32.65 32.65 0 0 1 53 46.83a38.33 38.33 0 0 1 1.76 11.77 39.81 39.81 0 0 1-1 8.9 32.78 32.78 0 0 1-3.38 8.58 28.09 28.09 0 0 1-5.93 7.39 27.38 27.38 0 0 1-9 5.11 36 36 0 0 1-12.23 2h-20A3.17 3.17 0 0 1 0 87.38Zm24.64 47.48q7.84 0 11.78-5.61a22.32 22.32 0 0 0 3.92-13.1 23 23 0 0 0-3.79-13.14 12.33 12.33 0 0 0-10.9-5.66H17a3.17 3.17 0 0 0-3.13 3.2v31.14A3.17 3.17 0 0 0 17 77.31ZM63.38 87.38V29.83a3.17 3.17 0 0 1 3.17-3.17h7.54a3.17 3.17 0 0 1 3.17 3.17v57.55a3.17 3.17 0 0 1-3.17 3.17h-7.54a3.17 3.17 0 0 1-3.17-3.17ZM86.88 29.83a3.17 3.17 0 0 1 3.17-3.17h20.38a35.51 35.51 0 0 1 14.23 2.69 24.68 24.68 0 0 1 9.82 7.3 32.65 32.65 0 0 1 5.38 10.18 38.33 38.33 0 0 1 1.78 11.77 39.23 39.23 0 0 1-1 8.9 32.78 32.78 0 0 1-3.38 8.58 28.09 28.09 0 0 1-5.93 7.39 27.38 27.38 0 0 1-9 5.11 36 36 0 0 1-12.23 2h-20a3.17 3.17 0 0 1-3.17-3.17Zm24.64 47.48q7.85 0 11.78-5.61a22.32 22.32 0 0 0 3.92-13.1 23 23 0 0 0-3.79-13.14 12.33 12.33 0 0 0-10.9-5.66h-8.61a3.17 3.17 0 0 0-3.17 3.2v31.14a3.17 3.17 0 0 0 3.17 3.17Z"/><path class="cls-2" d="M341.46 87.38V29.83a3.17 3.17 0 0 1 3.17-3.17h7.53a3.17 3.17 0 0 1 3.17 3.17v57.55a3.17 3.17 0 0 1-3.17 3.17h-7.53a3.17 3.17 0 0 1-3.17-3.17Z"/><path class="cls-2" d="M319.62 54.76a3.17 3.17 0 0 1-3.17-3.17v-20a36 36 0 0 1 2-12.23 27.38 27.38 0 0 1 5.11-9 28.09 28.09 0 0 1 7.39-5.93A32.78 32.78 0 0 1 339.5 1a39.81 39.81 0 0 1 8.9-1 38.33 38.33 0 0 1 11.77 1.78 32.65 32.65 0 0 1 10.18 5.38 24.68 24.68 0 0 1 7.3 9.82 35.51 35.51 0 0 1 2.69 14.23v20.38a3.17 3.17 0 0 1-3.17 3.17Zm10.07-17a3.17 3.17 0 0 0 3.17 3.17H364a3.17 3.17 0 0 0 3.17-3.17v-8.65a12.33 12.33 0 0 0-5.66-10.9 23 23 0 0 0-13.14-3.79 22.32 22.32 0 0 0-13.1 3.92q-5.61 3.93-5.61 11.78ZM377.17 62.45a3.16 3.16 0 0 1 3.17 3.16V86a35.56 35.56 0 0 1-2.69 14.24 24.57 24.57 0 0 1-7.3 9.81 32.68 32.68 0 0 1-10.18 5.39 38.64 38.64 0 0 1-11.77 1.78 39.24 39.24 0 0 1-8.9-1 32.43 32.43 0 0 1-8.58-3.38 27.89 27.89 0 0 1-7.39-5.93 27.23 27.23 0 0 1-5.11-9 36 36 0 0 1-2-12.23v-20a3.16 3.16 0 0 1 3.17-3.16Zm-47.48 24.64q0 7.84 5.61 11.77a22.26 22.26 0 0 0 13.1 3.93A23.12 23.12 0 0 0 361.54 99a12.34 12.34 0 0 0 5.66-10.91v-8.6a3.17 3.17 0 0 0-3.2-3.17h-31.14a3.17 3.17 0 0 0-3.17 3.17Z"/></g></g></svg>