<svg width="502" height="170" xmlns="http://www.w3.org/2000/svg"><defs><linearGradient x1="50%" y1="0%" x2="50%" y2="100%" id="a"><stop stop-color="#3E6E99" stop-opacity=".446" offset="0%"/><stop stop-color="#2A2231" stop-opacity="0" offset="100%"/></linearGradient><linearGradient x1="50%" y1="0%" x2="50%" y2="100%" id="b"><stop stop-color="#3E6E99" stop-opacity=".446" offset="0%"/><stop stop-color="#2A2231" stop-opacity="0" offset="100%"/></linearGradient><linearGradient x1="50%" y1="0%" x2="50%" y2="100%" id="c"><stop stop-color="#3E6E99" stop-opacity=".446" offset="0%"/><stop stop-color="#2A2231" stop-opacity="0" offset="100%"/></linearGradient><linearGradient x1="50%" y1="0%" x2="50%" y2="100%" id="d"><stop stop-color="#3E6E99" stop-opacity=".446" offset="0%"/><stop stop-color="#2A2231" stop-opacity="0" offset="100%"/></linearGradient><linearGradient x1="50%" y1="0%" x2="50%" y2="100%" id="e"><stop stop-color="#3E6E99" stop-opacity=".446" offset="0%"/><stop stop-color="#2A2231" stop-opacity="0" offset="100%"/></linearGradient></defs><g fill-rule="nonzero" fill="none" opacity=".499"><path d="m502 0-.001 169.839h-21.086c-35.009-13.304-59.888-47.169-59.888-86.845 0-36.285 20.809-67.71 51.144-82.993L502 0Z" fill="url(#a)"/><path d="M355.405 52.066c0 36.982-29.98 66.961-66.962 66.961-36.981 0-66.96-29.98-66.96-66.96 0-21.027 9.69-39.79 24.85-52.066h84.221c15.16 12.276 24.85 31.04 24.85 52.065Z" fill="url(#b)"/><circle fill="url(#c)" cx="408.62" cy="100.733" r="66.961"/><path d="M66.961 77.472c36.982 0 66.961 29.98 66.961 66.961a66.79 66.79 0 0 1-4.59 24.413H4.59A66.79 66.79 0 0 1 0 144.433c0-36.981 29.98-66.96 66.961-66.96Z" fill="url(#d)"/><circle fill="url(#c)" cx="328.122" cy="101.2" r="45.806"/><path d="M152.326 101.08c25.298 0 45.806 20.508 45.806 45.806 0 7.957-2.029 15.44-5.597 21.96h-80.418a45.601 45.601 0 0 1-5.597-21.96c0-25.298 20.508-45.806 45.806-45.806Z" fill="url(#e)"/></g></svg>