<svg width="14" height="14" xmlns="http://www.w3.org/2000/svg" xmlns:xlink="http://www.w3.org/1999/xlink"><defs><path id="a" d="M0 0h10.545v10.533H0z"/></defs><g fill="none" fill-rule="evenodd"><path d="M2.127 14A2.128 2.128 0 0 1 0 11.875V4.591c0-1.172.954-2.125 2.127-2.125H7.82a.49.49 0 0 1 .348.839l-.839.838a.493.493 0 0 1-.348.144H2.127a.304.304 0 0 0-.304.304v7.284c0 .167.137.304.304.304H9.42a.305.305 0 0 0 .304-.304v-4.85a.48.48 0 0 1 .143-.344l.852-.851a.486.486 0 0 1 .828.342v5.703A2.128 2.128 0 0 1 9.42 14H2.127Z" fill="#3E6E99"/><g transform="translate(3.455)"><mask id="b" fill="#fff"><use xlink:href="#a"/></mask><path d="M.912 10.533A.909.909 0 0 1 0 9.623c0-.243.095-.472.267-.645l7.166-7.157H5.38a.911.911 0 1 1 0-1.822h4.254c.503 0 .912.409.912.911v4.25a.912.912 0 0 1-1.824 0V3.108l-7.166 7.158a.909.909 0 0 1-.644.266" fill="#3E6E99" mask="url(#b)"/></g></g></svg>